<svg width="215" height="49" viewBox="0 0 215 49" fill="none" xmlns="http://www.w3.org/2000/svg">
<g clip-path="url(#clip0_81_33620)">
<path d="M196.847 16.8708C197.19 18.5452 198.539 21.1232 200.835 20.8811C204.035 20.5469 203.692 17.7063 203.364 15.5306C203.008 13.1743 204.038 11.7215 205.422 10.9509C208.563 9.19806 212.395 10.0574 213.426 10.9509C214.453 11.8443 215.484 14.4121 212.741 17.5392C209.998 20.6663 203.582 21.1028 202.094 22.5555C200.607 24.0082 203.021 27.033 203.596 28.1481C204.166 29.2666 206.681 36.4142 201.423 37.1951C196.166 37.976 195.706 33.062 196.394 30.16C197.079 27.2546 199.355 25.3586 198.439 23.0124C197.709 21.1369 195.761 20.8641 191.476 19.8854C186.547 18.76 184.548 15.0191 185.758 12.4036C187.004 9.71299 189.989 10.0574 193.074 10.9509C196.159 11.8443 196.502 15.1965 196.844 16.8708H196.847Z" fill="black"/>
<path d="M82.0914 36.8161V10.8345H98.2165V13.9002H85.0417V21.856H97.3794V24.9046H85.0417V33.747H98.7318V36.8127H82.0879L82.0914 36.8161Z" fill="black"/>
<path d="M147.537 22.577V10.8325H125.318V22.577H132.336C132.311 22.727 132.287 22.877 132.287 23.0339C132.287 23.9308 132.688 24.7287 133.311 25.288H133.093C133.062 25.288 133.034 25.288 133.003 25.288C131.952 25.2948 130.911 25.4449 129.935 25.7245C128.932 26.0143 128.026 26.4372 127.258 26.9726C126.494 27.508 125.885 28.1423 125.47 28.8413C125.055 29.5404 124.844 30.2906 124.844 31.0443C124.844 31.7979 125.058 32.5481 125.47 33.2472C125.885 33.9463 126.49 34.5805 127.258 35.1159C128.022 35.6513 128.932 36.0742 129.935 36.364C130.935 36.6539 132.007 36.8039 133.09 36.8039H147.52V28.6742H133.086V27.9717C133.093 27.8729 133.097 27.7399 133.097 27.5489C133.097 26.4236 134.162 26.1473 135.58 26.086H144.31V24.49H135.376C134.56 24.49 133.892 23.8353 133.892 23.0305C133.892 22.8702 133.927 22.7168 133.975 22.5735H147.523L147.537 22.577Z" fill="black"/>
<path d="M103.939 10.8286H101.396V17.2089H103.939V10.8286Z" fill="black"/>
<path d="M107.177 20.8608H104.635V27.2412H107.177V20.8608Z" fill="black"/>
<path d="M105.329 17.209H102.787V20.8544H105.329V17.209Z" fill="black"/>
<path d="M109.259 27.2417H106.717V30.8871H109.259V27.2417Z" fill="black"/>
<path d="M111.337 30.8867H108.795V34.5321H111.337V30.8867Z" fill="black"/>
<path d="M113.184 34.5283H110.873V36.8063H113.184V34.5283Z" fill="black"/>
<path d="M122.675 10.8286H120.133V17.2089H122.675V10.8286Z" fill="black"/>
<path d="M119.435 20.8608H116.893V27.2412H119.435V20.8608Z" fill="black"/>
<path d="M121.284 17.209H118.742V20.8544H121.284V17.209Z" fill="black"/>
<path d="M117.355 27.2417H114.812V30.8871H117.355V27.2417Z" fill="black"/>
<path d="M115.277 30.8867H112.734V34.5321H115.277V30.8867Z" fill="black"/>
<path d="M113.195 34.5283H110.885V36.8063H113.195V34.5283Z" fill="black"/>
<path fill-rule="evenodd" clip-rule="evenodd" d="M168.657 26.6891C168.719 27.5144 168.791 28.343 168.871 29.1683C169.023 30.7267 169.068 31.1052 169.11 31.4258C169.11 31.4565 169.117 31.4837 169.12 31.5144C169.158 31.8145 169.207 32.1555 169.335 33.3866C169.335 33.39 169.335 33.4002 169.335 33.4139C169.345 33.5025 169.376 33.7685 169.397 34.055C169.411 34.2221 169.421 34.3994 169.424 34.5597C169.424 34.7063 169.424 34.8734 169.393 34.9996C169.373 35.0746 169.324 35.1667 169.227 35.2246C169.407 35.5963 169.584 35.9749 169.739 36.3534C169.819 36.5375 169.881 36.8547 169.898 37.0968C169.902 37.1616 169.905 37.2264 169.898 37.2877C169.895 37.3457 169.884 37.4242 169.853 37.5026C169.826 37.5708 169.736 37.7345 169.525 37.7618C169.341 37.789 169.207 37.6867 169.158 37.6458C168.625 37.1923 168.2 36.5955 167.833 36.009C167.66 35.7293 167.494 35.4429 167.335 35.1735L167.311 35.1291C167.145 34.8427 166.986 34.5699 166.827 34.3244C165.25 31.8623 163.8 29.3558 162.4 26.8255C161.746 25.6422 160.93 24.3361 160.079 22.9755C159.684 22.3412 159.28 21.6933 158.882 21.042C158.252 20.0087 157.633 18.9652 157.087 17.9422C156.288 22.5561 155.261 27.1256 154.23 31.702C154.168 31.9748 154.109 32.2476 154.046 32.5204V32.5272C153.797 33.6253 153.555 34.7097 153.375 35.8043C153.375 35.8214 153.372 35.8385 153.369 35.8555C153.369 35.8623 153.369 35.8725 153.365 35.8828C153.365 35.9067 153.355 35.9442 153.348 35.9783C153.348 35.9851 153.341 36.009 153.327 36.0362C153.324 36.0499 153.31 36.0772 153.286 36.1078C153.272 36.1283 153.202 36.2204 153.064 36.2477C152.884 36.2818 152.763 36.1829 152.718 36.1317C152.677 36.084 152.659 36.0362 152.653 36.0226C152.639 35.9885 152.635 35.9544 152.632 35.9476C152.625 35.9067 152.625 35.8521 152.625 35.8043C152.611 34.7506 152.621 33.6901 152.653 32.6364C152.684 31.6781 152.739 30.7199 152.815 29.7616C152.566 30.413 152.314 31.0677 152.058 31.719C151.892 32.1487 151.715 32.5784 151.539 33.0046C150.857 34.6654 150.173 36.3329 149.979 38.0141C149.955 38.2187 149.955 38.437 149.962 38.6723C149.962 38.7439 149.965 38.8223 149.968 38.9007C149.975 39.061 149.982 39.2315 149.982 39.3918C149.982 39.5862 149.82 39.743 149.623 39.743C149.425 39.743 149.263 39.5862 149.263 39.3918C149.263 39.2417 149.256 39.0985 149.253 38.9451C149.253 38.8632 149.246 38.7814 149.242 38.6927C149.235 38.4506 149.235 38.1914 149.263 37.9357C149.47 36.1522 150.204 34.3687 150.889 32.6977C151.061 32.2783 151.228 31.8691 151.387 31.4667C151.964 29.9901 152.531 28.5101 153.088 27.0301C153.099 26.9312 153.109 26.8358 153.123 26.7369C153.123 26.7096 153.126 26.6823 153.133 26.655C153.289 25.3183 153.465 23.9849 153.645 22.655C153.822 21.3421 153.995 20.0326 154.147 18.7231C154.192 18.3377 154.299 17.6557 154.368 17.3113C154.382 17.2295 154.399 17.151 154.413 17.0999C154.417 17.0896 154.423 17.0658 154.434 17.0385C154.437 17.0283 154.455 16.9942 154.482 16.9601C154.496 16.943 154.531 16.9021 154.586 16.8714C154.648 16.8339 154.759 16.7998 154.883 16.8407C154.953 16.8612 154.998 16.8987 155.032 16.9328C155.129 15.5994 155.195 14.2695 155.195 12.9361C155.195 12.8918 155.195 12.8475 155.198 12.8065C155.198 12.7895 155.202 12.7622 155.209 12.7315C155.209 12.7179 155.229 12.6326 155.302 12.561C155.35 12.5099 155.437 12.4485 155.565 12.4485C155.682 12.4485 155.762 12.4996 155.8 12.5303C155.866 12.5815 155.897 12.6429 155.904 12.6565C155.925 12.7008 155.938 12.7452 155.945 12.7724C155.98 12.8952 156.028 13.1203 156.077 13.3624C156.077 13.3794 156.084 13.3931 156.087 13.4101C156.191 13.9182 156.312 14.515 156.416 14.7946C156.516 15.0606 156.627 15.3334 156.748 15.6097C156.855 14.931 156.955 14.249 157.049 13.567C157.063 13.4749 157.194 12.8509 157.322 12.3018C157.388 12.0222 157.453 11.746 157.505 11.555C157.53 11.463 157.554 11.3743 157.578 11.3163C157.585 11.2993 157.592 11.2822 157.599 11.2618C157.599 11.2618 157.623 11.2106 157.657 11.1697C157.671 11.1526 157.716 11.0981 157.799 11.064C157.844 11.0435 157.91 11.0299 157.983 11.0401C158.059 11.0503 158.121 11.0776 158.166 11.1151C158.245 11.1799 158.277 11.2549 158.284 11.2788C158.294 11.3095 158.297 11.3368 158.301 11.3538C158.467 12.561 158.239 13.8841 157.893 15.1493C157.734 15.7392 157.543 16.3326 157.353 16.9021C157.972 18.1229 158.719 19.4017 159.501 20.6805C159.892 21.3182 160.29 21.9559 160.684 22.5868C161.009 23.1085 161.331 23.6234 161.642 24.1281C161.5 23.6302 161.4 23.1187 161.379 22.6004C161.376 22.5015 161.379 22.3958 161.396 22.2969C161.41 22.215 161.452 22.0616 161.59 21.9559C161.767 21.8229 161.967 21.857 162.088 21.915C162.202 21.9661 162.303 22.0548 162.393 22.1434C163.14 22.9073 163.627 23.8996 164.06 24.776C164.139 24.9363 164.215 25.0898 164.292 25.2398C164.921 26.4845 165.516 27.7497 166.111 29.0114C166.471 29.7787 166.83 30.546 167.197 31.303C167.515 31.9646 167.868 32.6159 168.221 33.274C168.314 33.4446 168.404 33.6185 168.497 33.7924C168.56 33.9083 168.622 34.0277 168.684 34.1436C168.684 34.13 168.684 34.1163 168.684 34.1027C168.664 33.8367 168.636 33.598 168.622 33.4957C168.622 33.4752 168.619 33.4582 168.619 33.4514C168.491 32.2271 168.446 31.8929 168.408 31.5963C168.404 31.5656 168.401 31.5383 168.397 31.5076C168.352 31.1734 168.307 30.7881 168.155 29.2262C167.712 24.6771 167.522 20.1212 167.484 15.5619C167.484 15.2993 167.481 15.0368 167.477 14.7742C167.463 13.1851 167.446 11.5891 167.484 9.99661C167.488 9.79542 167.498 9.38279 167.522 9.06906C167.532 8.92584 167.546 8.76215 167.577 8.65985C167.584 8.63598 167.598 8.58142 167.633 8.52685C167.65 8.49957 167.692 8.44501 167.768 8.40068C167.861 8.34953 167.979 8.33589 168.089 8.38022C168.179 8.41432 168.228 8.4757 168.252 8.50298C168.276 8.53367 168.29 8.56437 168.3 8.58483C168.318 8.62575 168.331 8.66667 168.338 8.69736C168.428 9.03496 168.425 9.4203 168.411 9.76472C168.404 9.91136 168.394 10.0444 168.387 10.1739C168.373 10.3683 168.363 10.5456 168.363 10.7093V10.9412C168.442 10.9242 168.529 10.9344 168.608 10.9753C168.698 11.0231 168.743 11.0913 168.76 11.1185C168.781 11.1526 168.791 11.1833 168.798 11.2038C168.812 11.2447 168.823 11.289 168.83 11.33C168.961 12.0529 168.961 12.8236 168.937 13.567C168.926 13.8603 168.909 14.1433 168.895 14.4195C168.871 14.8697 168.847 15.2993 168.847 15.7256C168.847 15.845 168.847 15.9643 168.847 16.0837C168.843 17.2602 168.836 18.498 168.556 19.7018C168.549 19.7393 168.539 19.7734 168.529 19.8075V20.094C168.529 20.435 168.529 20.776 168.525 21.1136C168.522 21.7274 168.515 22.3412 168.525 22.9482C168.615 22.9789 168.67 23.0335 168.688 23.0539C169.068 23.4734 169.262 24.1008 169.324 24.6874C169.386 25.2807 169.331 25.9048 169.141 26.3652C169.12 26.4129 169.092 26.4709 169.051 26.522C169.006 26.5732 168.93 26.6448 168.809 26.6721C168.757 26.6823 168.708 26.6857 168.664 26.6789L168.657 26.6891ZM166.101 30.6687C165.883 30.2084 165.665 29.748 165.45 29.291C164.862 28.0395 164.278 26.7948 163.648 25.5535C163.565 25.3899 163.482 25.2228 163.403 25.0591C163.029 24.2986 162.656 23.5416 162.133 22.9141C162.254 23.9781 162.704 25.0352 163.178 26.0855C163.89 27.661 164.748 29.1819 165.634 30.7096C165.654 30.6892 165.679 30.6687 165.706 30.6517C165.81 30.5903 165.91 30.5971 165.966 30.6073C166.021 30.6176 166.059 30.638 166.076 30.6483C166.083 30.6517 166.09 30.6551 166.097 30.6619L166.101 30.6687ZM167.297 33.7174C167.349 33.7958 167.398 33.8742 167.449 33.9527C167.615 34.2152 167.782 34.4983 167.948 34.7847L167.972 34.8256C168.131 35.0985 168.29 35.3747 168.459 35.6441C168.632 35.9237 168.816 36.1931 169.006 36.4386C168.74 35.818 168.435 35.2076 168.117 34.5972C168.017 34.4915 167.909 34.3823 167.806 34.2698C167.636 34.0857 167.46 33.8947 167.304 33.7208L167.297 33.7174ZM169.169 34.6108C169.169 34.6108 169.169 34.6108 169.165 34.6108H169.169ZM156.551 16.8748C156.381 16.527 156.222 16.186 156.073 15.8484C156.073 15.8859 156.073 15.92 156.073 15.937C156.073 15.9916 156.063 16.053 156.056 16.1109C156.008 16.4281 155.921 16.735 155.842 17.0146C155.838 17.0283 155.835 17.0419 155.831 17.0555C155.79 17.1988 155.752 17.3352 155.717 17.4682C155.689 17.8126 155.662 18.1604 155.634 18.5048C155.62 18.6549 155.61 18.764 155.603 18.839C155.599 18.8765 155.596 18.9072 155.589 18.9345C155.589 18.9516 155.579 18.9959 155.565 19.0368C155.565 19.0368 155.544 19.0914 155.51 19.1357C155.492 19.1596 155.444 19.2141 155.357 19.2483C155.344 19.2551 155.33 19.2585 155.316 19.2619C155.157 20.1792 155.018 21.1034 154.88 22.0241C154.877 22.0548 154.87 22.0855 154.866 22.1162C155.281 20.9158 155.682 19.7154 156.066 18.5048C156.187 18.1297 156.319 17.7444 156.454 17.3454C156.464 17.3147 156.475 17.2874 156.485 17.2567C156.506 17.1272 156.526 16.9976 156.551 16.8714V16.8748ZM155.52 22.4299C155.174 23.4325 154.818 24.4282 154.451 25.424C154.451 25.4444 154.448 25.4649 154.444 25.4819C154.399 25.8605 154.34 26.2492 154.268 26.5561C154.23 26.7062 154.188 26.8528 154.133 26.9756C154.105 27.0335 154.071 27.1017 154.022 27.1597C153.977 27.2143 153.901 27.2893 153.784 27.3234C153.604 28.9398 153.462 30.5562 153.396 32.1794C153.441 31.9714 153.49 31.7668 153.535 31.5588C154.219 28.5101 154.904 25.4717 155.516 22.4299H155.52ZM155.849 15.4903C155.89 15.5074 155.925 15.5346 155.952 15.5585C155.918 15.4801 155.887 15.4016 155.855 15.3232C155.855 15.3778 155.852 15.4357 155.849 15.4903Z" fill="black"/>
<path fill-rule="evenodd" clip-rule="evenodd" d="M155.023 10.7544C156.029 11.5728 156.69 12.6743 157.278 13.7144C157.323 13.7928 157.368 13.8712 157.409 13.9497C157.409 13.878 157.437 13.7689 157.548 13.6837C157.686 13.578 157.838 13.6121 157.859 13.6189C157.928 13.6359 157.98 13.6666 157.99 13.6734C158.028 13.6973 158.066 13.728 158.101 13.7553C158.246 13.8746 158.509 14.1133 158.81 14.393C159.415 14.9591 160.214 15.7263 160.605 16.1253C161.249 16.7835 161.591 17.4928 161.92 18.2669C162.366 19.3138 162.909 20.3129 163.459 21.3291C163.59 21.5713 163.725 21.8168 163.856 22.0623C164.348 22.9796 165.195 24.6029 165.994 26.1272C166.184 26.4955 166.375 26.8569 166.554 27.2048C166.976 27.9038 167.371 28.6166 167.73 29.3497C167.806 29.5032 167.862 29.6225 167.903 29.7078C167.934 29.776 167.969 29.851 167.983 29.8988C167.983 29.8988 167.993 29.9329 167.997 29.9704C167.997 29.9704 168.004 30.0352 167.983 30.1C167.969 30.1341 167.928 30.2091 167.896 30.2466C167.848 30.2875 167.734 30.3421 167.672 30.3523C167.537 30.3659 167.447 30.3012 167.429 30.2909C167.402 30.2705 167.381 30.25 167.374 30.2432C167.357 30.2261 167.343 30.2091 167.34 30.2023C167.322 30.1784 167.305 30.1477 167.295 30.1272C167.267 30.0795 167.225 30.0045 167.174 29.909C166.966 29.5271 166.568 28.7666 166.091 27.8561C166.036 27.7538 165.984 27.6481 165.925 27.5424C165.25 26.4239 164.507 25.3326 163.753 24.2414C163.68 24.1391 163.611 24.0368 163.542 23.9345C163.414 23.7469 163.286 23.5628 163.154 23.3752C163.21 23.5253 163.262 23.6753 163.317 23.8253C163.348 23.914 163.39 24.0163 163.438 24.1323C163.825 24.8654 164.234 25.5781 164.676 26.2499C164.787 26.417 164.898 26.6216 165.008 26.8262C165.033 26.8706 165.057 26.9149 165.081 26.9558C165.174 27.1263 165.264 27.2968 165.365 27.4673C165.486 27.6788 165.607 27.8732 165.731 28.0368C165.856 28.2039 165.97 28.3165 166.07 28.3813C166.236 28.487 166.281 28.7052 166.17 28.8655C166.06 29.0258 165.838 29.0701 165.672 28.961C165.475 28.8314 165.302 28.6472 165.154 28.4529C165.005 28.2551 164.863 28.03 164.735 27.8084C164.631 27.631 164.534 27.4469 164.445 27.2764C164.42 27.232 164.4 27.1911 164.375 27.1502C164.261 26.9422 164.161 26.7615 164.071 26.6216C164.026 26.5534 163.981 26.4852 163.94 26.417C163.94 26.4307 163.933 26.4409 163.929 26.4511C163.912 26.5159 163.832 26.6864 163.618 26.7103C163.469 26.7274 163.365 26.6523 163.345 26.6353C163.286 26.591 163.244 26.5364 163.23 26.5159C163.185 26.4545 163.137 26.3761 163.099 26.3079C163.058 26.2363 163.016 26.1579 162.985 26.0999C162.947 26.0249 162.936 26.0078 162.94 26.0181C162.404 25.1928 161.958 24.3232 161.518 23.4673C161.428 23.2934 161.338 23.1195 161.252 22.9489C161.252 22.9558 161.252 22.966 161.252 22.9728C161.252 22.9728 161.252 23.0717 161.2 23.157C161.166 23.2115 161.096 23.29 160.979 23.3172C160.868 23.3445 160.778 23.3172 160.73 23.2934C160.654 23.2559 160.609 23.2013 160.598 23.1911C160.571 23.157 160.55 23.1195 160.539 23.099C160.491 23.0103 160.425 22.8535 160.356 22.6864C160.218 22.3454 160.045 21.8748 159.972 21.6258C159.958 21.5747 159.941 21.5269 159.927 21.4758C159.806 21.22 159.682 20.954 159.585 20.6949C159.377 20.139 159.17 19.5866 158.955 19.0341C158.91 18.9387 158.865 18.8398 158.824 18.7443C158.8 18.6931 158.779 18.6454 158.755 18.5942C158.651 18.3658 158.547 18.1373 158.447 17.9054C157.665 16.572 156.863 15.2455 156.06 13.9224C155.714 13.3461 155.365 12.7732 155.019 12.1969C155.012 12.1832 154.995 12.1594 154.974 12.1252C154.902 12.0059 154.76 11.7774 154.642 11.5762C154.57 11.45 154.497 11.3171 154.455 11.2216C154.445 11.1977 154.431 11.167 154.424 11.1363C154.417 11.1159 154.393 11.0408 154.41 10.9522C154.421 10.8976 154.452 10.7851 154.576 10.7066C154.697 10.6316 154.819 10.6487 154.87 10.6623C154.96 10.6862 155.023 10.7373 155.036 10.7476L155.023 10.7544ZM159.274 17.9327C160.166 19.4604 161.034 21.0018 161.85 22.567C161.875 22.6148 161.899 22.6625 161.923 22.7068C161.688 22.2158 161.456 21.7247 161.231 21.2405C161.127 21.0154 161.02 20.7903 160.916 20.5721C160.685 20.0776 160.456 19.5559 160.228 19.0307L160.197 18.9625C159.958 18.4135 159.716 17.8576 159.457 17.312C158.941 16.2242 158.364 15.1978 157.634 14.3691C157.748 14.5839 157.859 14.7988 157.966 15.0136C158.091 15.0443 158.194 15.1398 158.229 15.2694C158.298 15.5354 158.378 15.7979 158.468 16.0605C158.751 16.6778 159.018 17.3018 159.27 17.9293L159.274 17.9327ZM161.899 20.1765C161.608 19.4945 161.307 18.8159 160.982 18.1407C160.982 18.1339 160.844 17.8508 160.699 17.5814C160.626 17.4484 160.55 17.3052 160.484 17.2029C160.453 17.1552 160.411 17.0972 160.373 17.0495C160.356 17.0324 160.315 16.9847 160.252 16.9506C160.221 16.9335 160.152 16.9028 160.062 16.9028C159.962 16.6914 159.855 16.4834 159.747 16.2719C159.882 16.4049 160 16.5209 160.093 16.6164C160.64 17.1756 160.941 17.7826 161.266 18.5431C161.691 19.5388 162.203 20.5005 162.715 21.4417C162.438 21.0222 162.169 20.5994 161.906 20.1731L161.899 20.1765Z" fill="black"/>
<path fill-rule="evenodd" clip-rule="evenodd" d="M158.466 16.2346C158.625 16.2073 158.809 16.238 158.954 16.3812C159.085 16.5074 159.099 16.6677 159.099 16.7563C159.099 16.8518 159.078 16.9439 159.058 17.0121C159.04 17.0769 159.016 17.1417 159.002 17.1894C159.002 17.1928 159.002 17.1963 159.002 17.1997C158.988 17.2372 158.982 17.2542 158.982 17.2645C158.982 17.2713 158.982 17.2713 158.982 17.2679C158.902 17.7487 158.871 18.2227 158.836 18.7172C158.819 18.9763 158.802 19.2389 158.777 19.5117C158.611 21.302 158.445 22.9116 157.875 24.6883C157.736 25.1248 157.595 25.5578 157.456 25.9943C157.01 27.3925 156.564 28.7975 156.062 30.1888C155.734 31.0993 155.467 32.0371 155.201 32.9885C155.187 33.0328 155.173 33.0806 155.163 33.1283C154.883 34.1206 154.592 35.1266 154.226 36.1019C154.17 36.2486 154.122 36.3645 154.077 36.4532C154.042 36.5248 153.984 36.6305 153.897 36.7021C153.852 36.7396 153.734 36.8249 153.565 36.7942C153.562 36.7942 153.555 36.7942 153.551 36.7942C153.541 36.8521 153.534 36.9101 153.523 36.9681C153.517 37.0022 153.513 37.0397 153.506 37.0738C153.472 37.292 153.437 37.4932 153.413 37.6024C153.406 37.6262 153.399 37.6672 153.382 37.7013C153.382 37.7013 153.354 37.7729 153.302 37.8274C153.271 37.8581 153.185 37.9366 153.039 37.9366C152.88 37.9366 152.787 37.8411 152.749 37.7967C152.714 37.7524 152.697 37.7081 152.693 37.691C152.686 37.6706 152.68 37.6501 152.68 37.6399C152.676 37.616 152.673 37.5921 152.673 37.5785C152.673 37.5444 152.673 37.5069 152.673 37.466C152.673 37.084 152.752 36.7021 152.846 36.3474C152.884 36.2042 152.922 36.0678 152.96 35.9382C152.974 35.8905 152.987 35.8427 152.998 35.7984C153.015 35.72 153.029 35.6518 153.046 35.5938C153.07 35.5051 153.095 35.4165 153.119 35.3278C153.164 35.13 153.209 34.9323 153.257 34.7311C153.337 32.9169 153.71 31.1845 154.105 29.4317C154.174 29.1248 154.243 28.8179 154.319 28.511C154.412 27.8597 154.509 27.2083 154.616 26.557C154.578 26.7036 154.544 26.8503 154.506 27.0037C154.464 27.1777 154.419 27.3584 154.371 27.5357C154.195 28.2041 154.015 28.8691 153.835 29.5306C153.613 30.3456 153.396 31.1573 153.181 31.9757C153.046 32.4906 152.866 33.2988 152.68 34.1513C152.538 34.789 152.389 35.4506 152.251 36.0405C152.092 36.7123 151.943 37.2989 151.829 37.599C151.801 37.6706 151.766 37.7558 151.721 37.8206C151.704 37.8479 151.652 37.9161 151.566 37.9638C151.514 37.9911 151.438 38.0184 151.344 38.0082C151.248 38.0014 151.175 37.957 151.123 37.9161C151.04 37.8411 151.009 37.7524 150.999 37.7183C150.985 37.674 150.978 37.6262 150.971 37.5853C150.96 37.5035 150.957 37.3978 150.957 37.2784C150.957 37.0977 151.099 36.9476 151.282 36.9306C151.358 36.6544 151.448 36.2963 151.545 35.8803C151.68 35.3142 151.825 34.6629 151.967 34.0252C152.161 33.159 152.344 32.3235 152.479 31.8018C152.693 30.9833 152.915 30.1615 153.136 29.3397C153.316 28.6781 153.496 28.0165 153.669 27.3584C153.71 27.2049 153.748 27.0481 153.786 26.8844C153.959 26.1751 154.153 25.3805 154.561 24.7087C154.613 24.6269 154.661 24.5519 154.713 24.4939C154.758 24.4462 154.841 24.3575 154.969 24.3234C154.98 24.3234 154.99 24.3166 155.004 24.3166C155.191 23.3515 155.398 22.3899 155.637 21.435C155.699 21.1895 155.754 20.9371 155.813 20.6746C155.82 20.6473 155.827 20.6234 155.831 20.5961C155.896 20.3063 155.962 20.0096 156.038 19.7163C156.194 19.1264 156.391 18.5262 156.702 17.9874C156.782 17.851 157.124 17.3565 157.494 16.9439C157.678 16.7393 157.889 16.5313 158.093 16.3949C158.193 16.3301 158.321 16.2619 158.463 16.238L158.466 16.2346ZM154.8 24.8179C154.8 24.8179 154.8 24.8179 154.8 24.8213V24.8179ZM154.284 33.5614C154.343 33.3534 154.402 33.1453 154.461 32.9373C154.475 32.8896 154.489 32.8419 154.502 32.7907C154.769 31.8461 155.042 30.8879 155.377 29.9535C155.872 28.5792 156.315 27.1913 156.758 25.7931C156.896 25.3532 157.038 24.9167 157.179 24.4734C157.726 22.7752 157.889 21.2338 158.051 19.4435C158.072 19.2082 158.089 18.9627 158.106 18.7138C158.141 18.2022 158.176 17.6703 158.259 17.1622C158.189 17.2304 158.113 17.3088 158.034 17.394C157.691 17.7794 157.38 18.2295 157.328 18.3182C157.307 18.3523 157.29 18.3898 157.269 18.4239C157.342 18.4921 157.38 18.591 157.373 18.6967C157.314 19.5151 157.1 20.3438 156.896 21.1213C156.837 21.3429 156.782 21.5612 156.73 21.7726C156.477 22.8195 156.211 23.8562 155.948 24.8895C155.796 25.4794 155.647 26.0728 155.498 26.6627C155.46 27.6585 155.377 28.6542 155.198 29.6466C155.021 30.6389 154.779 31.6176 154.53 32.5895C154.478 32.7873 154.426 32.9851 154.378 33.1829C154.347 33.309 154.312 33.4318 154.281 33.558L154.284 33.5614Z" fill="black"/>
<path fill-rule="evenodd" clip-rule="evenodd" d="M171.04 9.92418C171.057 10.0367 171.071 10.1561 171.071 10.214C171.071 12.4988 170.995 14.77 170.849 17.0513C170.804 17.7709 170.756 18.487 170.708 19.2065C170.635 20.2773 170.566 21.3446 170.5 22.412V26.4496C170.5 27.1998 170.521 27.9705 170.542 28.7548C170.597 30.777 170.649 32.8674 170.362 34.8248C170.324 35.0772 170.289 35.275 170.251 35.4216C170.23 35.4932 170.21 35.5648 170.185 35.6228C170.165 35.6671 170.12 35.7694 170.023 35.8376C169.964 35.882 169.871 35.9229 169.753 35.9161C169.639 35.9058 169.559 35.8547 169.514 35.8138C169.435 35.7421 169.397 35.6501 169.379 35.6057C169.338 35.4966 169.307 35.35 169.283 35.1931C169.175 34.5486 169.096 33.2869 169.027 31.8001C168.919 29.3823 168.85 26.3166 168.802 24.1785C168.791 23.6772 168.781 23.227 168.771 22.8485C168.757 22.2722 168.726 21.7027 168.691 21.1298C168.629 20.0556 168.567 18.9746 168.629 17.8493C168.646 17.5287 168.639 17.3309 168.605 17.1639C168.57 17.0002 168.508 16.8467 168.39 16.6148C168.3 16.4409 168.373 16.2329 168.549 16.1442C168.729 16.059 168.944 16.1272 169.034 16.3011C169.165 16.5569 169.258 16.7751 169.31 17.0274C169.362 17.2798 169.366 17.5424 169.348 17.8868C169.29 18.978 169.348 19.9874 169.407 21.0343C169.442 21.6175 169.476 22.2108 169.49 22.8315C169.49 22.8451 169.49 22.8622 169.49 22.8758V11.1859C169.49 10.995 169.646 10.8415 169.839 10.8347C169.839 10.7051 169.839 10.5721 169.839 10.4425C169.85 9.98215 169.895 9.47405 170.092 9.04778C170.106 9.01368 170.147 8.93184 170.241 8.87046C170.293 8.83636 170.362 8.80907 170.445 8.80566C170.524 8.80566 170.594 8.82612 170.642 8.85341C170.728 8.90115 170.777 8.96935 170.794 8.99663C170.818 9.03414 170.836 9.06824 170.846 9.09893C170.891 9.20806 170.929 9.36151 170.96 9.50133C170.991 9.64455 171.015 9.80142 171.036 9.92418H171.04ZM169.76 31.9399C169.781 32.3389 169.798 32.7208 169.819 33.0686C169.839 32.6969 169.853 32.3218 169.86 31.9467C169.826 31.9467 169.791 31.9467 169.76 31.9399ZM170.061 35.3602V35.367C170.061 35.367 170.061 35.367 170.061 35.3602Z" fill="black"/>
<path d="M71.3803 37.1311C70.0383 37.1311 68.9418 36.8753 68.0944 36.3638C67.2712 35.8284 66.6209 35.1805 66.1505 34.4132C65.7044 33.6459 65.2201 32.6365 64.7013 31.3816C64.1582 30.0824 63.6533 29.0696 63.1829 28.35C62.7367 27.6305 62.1245 27.0712 61.3462 26.6791C60.7824 26.4233 60.357 26.2971 60.0734 26.2971C59.4611 26.2971 59.1533 26.7848 59.1533 27.7601C59.1533 28.5512 59.2363 29.3969 59.3989 30.304C59.5857 31.1873 59.8589 31.859 60.2117 32.3228C60.4711 32.6707 60.7167 32.9503 60.9554 33.1583C61.2148 33.3663 61.5192 33.5982 61.8754 33.854C62.2524 34.1336 62.5222 34.3893 62.6882 34.6212C62.8543 34.8293 62.9338 35.143 62.9338 35.5624C62.9338 36.0262 62.7332 36.3979 62.332 36.6775C61.955 36.9572 61.4361 37.097 60.779 37.097C60.3086 37.097 59.6237 37.0492 58.7313 36.9572C57.7905 36.8651 57.0572 36.8174 56.5419 36.8174C56.0715 36.8174 55.4351 36.8651 54.6326 36.9572C53.7368 37.0492 52.9585 37.097 52.3013 37.097C51.6442 37.097 51.1115 36.9572 50.7103 36.6775C50.3333 36.3979 50.1465 36.0262 50.1465 35.5624C50.1465 35.143 50.2295 34.8293 50.3955 34.6212C50.5615 34.3893 50.8313 34.1336 51.2083 33.854C51.5612 33.5982 51.8552 33.3663 52.0904 33.1583C52.3498 32.9503 52.6092 32.6707 52.8686 32.3228C53.2698 31.7874 53.55 30.952 53.716 29.8164C53.882 28.6808 53.965 27.2861 53.965 25.6356V22.2562C53.965 20.6057 53.882 19.2143 53.716 18.0754C53.55 16.9364 53.2698 16.1009 52.8686 15.5689C52.54 15.1495 52.0454 14.6175 51.3847 13.9662C51.0562 13.6422 50.821 13.3967 50.6791 13.233C50.5615 13.0489 50.5027 12.7931 50.5027 12.4657C50.5027 11.9542 50.6895 11.5484 51.0665 11.2449C51.4678 10.9414 51.997 10.7914 52.6576 10.7914C52.917 10.7914 53.8959 10.9312 55.5907 11.2108C57.7594 11.5586 59.0876 11.7326 59.5822 11.7326C60.2186 11.7326 60.8205 11.6746 61.3843 11.5586C61.948 11.4427 62.6813 11.2688 63.5737 11.0369C64.5629 10.7811 65.3412 10.597 65.905 10.481C66.493 10.3651 67.1294 10.3071 67.8142 10.3071C68.8519 10.3071 69.8515 10.539 70.8165 11.0028C71.7815 11.4666 72.5701 12.1043 73.1824 12.9193C73.7946 13.7309 74.1024 14.638 74.1024 15.6371C74.1024 17.7957 73.3484 19.702 71.8403 21.3491C70.3323 22.9757 67.6932 24.1931 63.9265 25.0081C65.4588 25.0559 66.6832 25.4139 67.5998 26.0891C68.5198 26.7609 69.1909 27.5282 69.6128 28.3875C70.059 29.223 70.4845 30.2802 70.8857 31.559C71.1693 32.466 71.4149 33.1276 71.6293 33.5436C71.8645 33.9392 72.1724 34.137 72.5494 34.137C73.1858 34.137 73.504 33.7312 73.504 32.9162C73.504 31.7329 72.8676 29.8505 71.5948 27.2724C71.3838 26.853 71.2765 26.4233 71.2765 25.9834C71.2765 25.2639 71.5602 24.6603 72.124 24.1726C72.712 23.685 73.549 23.4395 74.6316 23.4395C75.8318 23.4395 76.7761 23.8112 77.4575 24.5546C78.1389 25.298 78.4813 26.3654 78.4813 27.7601C78.4813 31.1259 77.8587 33.53 76.6101 34.9691C75.3856 36.4081 73.6424 37.1277 71.3803 37.1277V37.1311ZM59.1222 22.2562C59.1222 22.5597 59.1706 22.754 59.264 22.8495C59.3816 22.9416 59.5718 22.9655 59.8278 22.9177C62.3009 22.5699 64.3969 21.8742 66.116 20.8273C67.8592 19.7838 68.7308 18.4368 68.7308 16.7863C68.7308 15.9952 68.4126 15.3814 67.7762 14.9415C67.1398 14.4777 66.3269 14.2458 65.3377 14.2458C65.0091 14.2458 64.6425 14.2799 64.2413 14.3515C62.709 14.6312 61.578 15.0949 60.8481 15.7463C60.1183 16.3737 59.6479 17.1853 59.4335 18.1845C59.2225 19.1598 59.1153 20.517 59.1153 22.2596L59.1222 22.2562Z" fill="black"/>
<path fill-rule="evenodd" clip-rule="evenodd" d="M177.834 11.5587C177.747 11.8963 177.477 12.1657 177.131 12.2646C177.477 12.3601 177.751 12.6329 177.837 12.9739C177.924 12.6329 178.193 12.3635 178.539 12.2646C178.193 12.1691 177.924 11.8997 177.834 11.5587ZM179.1 12.2646C179.522 12.1453 179.829 11.7667 179.829 11.32C179.829 10.7778 179.376 10.3379 178.816 10.3379C178.342 10.3379 177.944 10.655 177.834 11.0813C177.723 10.655 177.325 10.3379 176.851 10.3379C176.291 10.3379 175.838 10.7778 175.838 11.32C175.838 11.7701 176.149 12.1487 176.571 12.2646C176.149 12.384 175.841 12.7625 175.841 13.2092C175.841 13.7514 176.294 14.1913 176.855 14.1913C177.332 14.1913 177.73 13.8708 177.841 13.4411C177.948 13.8708 178.349 14.1913 178.826 14.1913C179.387 14.1913 179.84 13.7514 179.84 13.2092C179.84 12.7591 179.528 12.3805 179.106 12.2646H179.1Z" fill="black"/>
<path fill-rule="evenodd" clip-rule="evenodd" d="M177.834 15.3507C177.747 15.6883 177.477 15.9577 177.131 16.0566C177.477 16.1521 177.751 16.4249 177.837 16.7659C177.924 16.4249 178.193 16.1555 178.539 16.0566C178.193 15.9611 177.924 15.6917 177.834 15.3507ZM179.1 16.0566C179.522 15.9372 179.829 15.5587 179.829 15.112C179.829 14.5698 179.376 14.1299 178.816 14.1299C178.342 14.1299 177.944 14.447 177.834 14.8733C177.723 14.447 177.325 14.1299 176.851 14.1299C176.291 14.1299 175.838 14.5698 175.838 15.112C175.838 15.5621 176.149 15.9407 176.571 16.0566C176.149 16.176 175.841 16.5545 175.841 17.0012C175.841 17.5434 176.294 17.9833 176.855 17.9833C177.332 17.9833 177.73 17.6628 177.841 17.2331C177.948 17.6628 178.349 17.9833 178.826 17.9833C179.387 17.9833 179.84 17.5434 179.84 17.0012C179.84 16.5511 179.528 16.1725 179.106 16.0566H179.1Z" fill="black"/>
<path fill-rule="evenodd" clip-rule="evenodd" d="M177.834 19.0983C177.747 19.4359 177.477 19.7053 177.131 19.8042C177.477 19.8996 177.751 20.1724 177.837 20.5135C177.924 20.1724 178.193 19.903 178.539 19.8042C178.193 19.7087 177.924 19.4393 177.834 19.0983ZM179.1 19.8042C179.522 19.6848 179.829 19.3063 179.829 18.8596C179.829 18.3173 179.376 17.8774 178.816 17.8774C178.342 17.8774 177.944 18.1946 177.834 18.6208C177.723 18.1946 177.325 17.8774 176.851 17.8774C176.291 17.8774 175.838 18.3173 175.838 18.8596C175.838 19.3097 176.149 19.6882 176.571 19.8042C176.149 19.9235 175.841 20.302 175.841 20.7488C175.841 21.291 176.294 21.7309 176.855 21.7309C177.332 21.7309 177.73 21.4103 177.841 20.9806C177.948 21.4103 178.349 21.7309 178.826 21.7309C179.387 21.7309 179.84 21.291 179.84 20.7488C179.84 20.2986 179.528 19.9201 179.106 19.8042H179.1Z" fill="black"/>
<path fill-rule="evenodd" clip-rule="evenodd" d="M177.834 22.8917C177.747 23.2293 177.477 23.4987 177.131 23.5976C177.477 23.6931 177.751 23.9659 177.837 24.3069C177.924 23.9659 178.193 23.6965 178.539 23.5976C178.193 23.5021 177.924 23.2327 177.834 22.8917ZM179.1 23.5976C179.522 23.4783 179.829 23.0997 179.829 22.653C179.829 22.1108 179.376 21.6709 178.816 21.6709C178.342 21.6709 177.944 21.988 177.834 22.4143C177.723 21.988 177.325 21.6709 176.851 21.6709C176.291 21.6709 175.838 22.1108 175.838 22.653C175.838 23.1031 176.149 23.4817 176.571 23.5976C176.149 23.717 175.841 24.0955 175.841 24.5422C175.841 25.0844 176.294 25.5243 176.855 25.5243C177.332 25.5243 177.73 25.2038 177.841 24.7741C177.948 25.2038 178.349 25.5243 178.826 25.5243C179.387 25.5243 179.84 25.0844 179.84 24.5422C179.84 24.0921 179.528 23.7136 179.106 23.5976H179.1Z" fill="black"/>
<path fill-rule="evenodd" clip-rule="evenodd" d="M177.834 26.7159C177.747 27.0535 177.477 27.3229 177.131 27.4218C177.477 27.5173 177.751 27.7901 177.837 28.1311C177.924 27.7901 178.193 27.5207 178.539 27.4218C178.193 27.3263 177.924 27.0569 177.834 26.7159ZM179.1 27.4218C179.522 27.3025 179.829 26.924 179.829 26.4772C179.829 25.935 179.376 25.4951 178.816 25.4951C178.342 25.4951 177.944 25.8123 177.834 26.2385C177.723 25.8123 177.325 25.4951 176.851 25.4951C176.291 25.4951 175.838 25.935 175.838 26.4772C175.838 26.9274 176.149 27.3059 176.571 27.4218C176.149 27.5412 175.841 27.9197 175.841 28.3664C175.841 28.9086 176.294 29.3485 176.855 29.3485C177.332 29.3485 177.73 29.028 177.841 28.5983C177.948 29.028 178.349 29.3485 178.826 29.3485C179.387 29.3485 179.84 28.9086 179.84 28.3664C179.84 27.9163 179.528 27.5378 179.106 27.4218H179.1Z" fill="black"/>
<path fill-rule="evenodd" clip-rule="evenodd" d="M177.834 30.5402C177.747 30.8778 177.477 31.1472 177.131 31.246C177.477 31.3415 177.751 31.6143 177.837 31.9554C177.924 31.6143 178.193 31.3449 178.539 31.246C178.193 31.1506 177.924 30.8812 177.834 30.5402ZM179.1 31.246C179.522 31.1267 179.829 30.7482 179.829 30.3014C179.829 29.7592 179.376 29.3193 178.816 29.3193C178.342 29.3193 177.944 29.6365 177.834 30.0627C177.723 29.6365 177.325 29.3193 176.851 29.3193C176.291 29.3193 175.838 29.7592 175.838 30.3014C175.838 30.7516 176.149 31.1301 176.571 31.246C176.149 31.3654 175.841 31.7439 175.841 32.1907C175.841 32.7329 176.294 33.1728 176.855 33.1728C177.332 33.1728 177.73 32.8522 177.841 32.4225C177.948 32.8522 178.349 33.1728 178.826 33.1728C179.387 33.1728 179.84 32.7329 179.84 32.1907C179.84 31.7405 179.528 31.362 179.106 31.246H179.1Z" fill="black"/>
<path fill-rule="evenodd" clip-rule="evenodd" d="M177.834 34.3658C177.747 34.7034 177.477 34.9728 177.131 35.0717C177.477 35.1672 177.751 35.44 177.837 35.781C177.924 35.44 178.193 35.1706 178.539 35.0717C178.193 34.9763 177.924 34.7069 177.834 34.3658ZM179.1 35.0717C179.522 34.9524 179.829 34.5739 179.829 34.1271C179.829 33.5849 179.376 33.145 178.816 33.145C178.342 33.145 177.944 33.4622 177.834 33.8884C177.723 33.4622 177.325 33.145 176.851 33.145C176.291 33.145 175.838 33.5849 175.838 34.1271C175.838 34.5773 176.149 34.9558 176.571 35.0717C176.149 35.1911 175.841 35.5696 175.841 36.0163C175.841 36.5585 176.294 36.9984 176.855 36.9984C177.332 36.9984 177.73 36.6779 177.841 36.2482C177.948 36.6779 178.349 36.9984 178.826 36.9984C179.387 36.9984 179.84 36.5585 179.84 36.0163C179.84 35.5662 179.528 35.1877 179.106 35.0717H179.1Z" fill="black"/>
<path fill-rule="evenodd" clip-rule="evenodd" d="M181.787 34.3658C181.7 34.7034 181.431 34.9728 181.085 35.0717C181.434 35.1672 181.704 35.44 181.79 35.781C181.877 35.44 182.146 35.1706 182.492 35.0717C182.146 34.9763 181.877 34.7069 181.787 34.3658ZM183.053 35.0717C183.475 34.9524 183.783 34.5739 183.783 34.1271C183.783 33.5849 183.329 33.145 182.769 33.145C182.295 33.145 181.897 33.4622 181.787 33.8884C181.676 33.4622 181.278 33.145 180.804 33.145C180.244 33.145 179.791 33.5849 179.791 34.1271C179.791 34.5773 180.102 34.9558 180.524 35.0717C180.102 35.1911 179.794 35.5696 179.794 36.0163C179.794 36.5585 180.248 36.9984 180.808 36.9984C181.285 36.9984 181.683 36.6779 181.79 36.2482C181.897 36.6779 182.299 36.9984 182.776 36.9984C183.336 36.9984 183.789 36.5585 183.789 36.0163C183.789 35.5662 183.478 35.1877 183.056 35.0717H183.053Z" fill="black"/>
<path fill-rule="evenodd" clip-rule="evenodd" d="M185.748 34.3658C185.661 34.7034 185.391 34.9728 185.046 35.0717C185.395 35.1672 185.665 35.44 185.751 35.781C185.838 35.44 186.107 35.1706 186.453 35.0717C186.107 34.9763 185.838 34.7069 185.748 34.3658ZM187.014 35.0717C187.436 34.9524 187.743 34.5739 187.743 34.1271C187.743 33.5849 187.29 33.145 186.73 33.145C186.256 33.145 185.858 33.4622 185.748 33.8884C185.637 33.4622 185.239 33.145 184.765 33.145C184.205 33.145 183.752 33.5849 183.752 34.1271C183.752 34.5773 184.063 34.9558 184.485 35.0717C184.063 35.1911 183.755 35.5696 183.755 36.0163C183.755 36.5585 184.209 36.9984 184.769 36.9984C185.246 36.9984 185.644 36.6779 185.755 36.2482C185.862 36.6779 186.263 36.9984 186.74 36.9984C187.301 36.9984 187.754 36.5585 187.754 36.0163C187.754 35.5662 187.443 35.1877 187.021 35.0717H187.014Z" fill="black"/>
<path fill-rule="evenodd" clip-rule="evenodd" d="M189.709 34.3658C189.622 34.7034 189.352 34.9728 189.006 35.0717C189.352 35.1672 189.626 35.44 189.712 35.781C189.799 35.44 190.068 35.1706 190.414 35.0717C190.068 34.9763 189.799 34.7069 189.709 34.3658ZM190.975 35.0717C191.397 34.9524 191.704 34.5739 191.704 34.1271C191.704 33.5849 191.251 33.145 190.691 33.145C190.217 33.145 189.819 33.4622 189.709 33.8884C189.598 33.4622 189.2 33.145 188.726 33.145C188.166 33.145 187.713 33.5849 187.713 34.1271C187.713 34.5773 188.024 34.9558 188.446 35.0717C188.024 35.1911 187.716 35.5696 187.716 36.0163C187.716 36.5585 188.169 36.9984 188.73 36.9984C189.207 36.9984 189.605 36.6779 189.716 36.2482C189.823 36.6779 190.224 36.9984 190.698 36.9984C191.258 36.9984 191.711 36.5585 191.711 36.0163C191.711 35.5662 191.4 35.1877 190.978 35.0717H190.975Z" fill="black"/>
</g>
<path fill-rule="evenodd" clip-rule="evenodd" d="M21.6258 24.5263C21.9259 24.1119 22.4927 23.9731 22.9566 24.2053C22.494 23.9051 22.3456 23.2978 22.6283 22.8212C22.9209 22.328 23.5644 22.1616 24.0657 22.4494C24.5669 22.7373 24.7361 23.3705 24.4435 23.8637C24.1614 24.3394 23.5529 24.5111 23.0603 24.2646C23.5229 24.5647 23.6713 25.172 23.3886 25.6486C23.3002 25.7977 23.1797 25.9169 23.0408 26.0028C24.0298 26.0355 25.0273 25.9838 25.8774 25.8278C26.802 25.6581 27.4255 25.3873 27.7304 25.0854C28.0868 24.7327 28.5951 24.1237 29.208 23.3895L29.2814 23.3015C29.9115 22.5468 30.6276 21.6932 31.3231 20.9653C31.996 20.2611 32.7334 19.5824 33.4101 19.2682C33.75 19.1105 34.2137 18.9789 34.6865 19.1442C35.1907 19.3204 35.466 19.7454 35.6063 20.1774C36.0939 21.6783 35.7048 23.0106 35.2089 24.1245C35.0373 24.5097 34.8394 24.8967 34.6567 25.2538C34.5816 25.4006 34.509 25.5425 34.4421 25.6769C34.2002 26.1624 34.014 26.582 33.9149 26.9718C33.8456 27.2449 33.8037 27.6503 33.7504 28.1669L33.7365 28.3017C33.6806 28.8403 33.6103 29.474 33.464 30.0027C33.3905 30.2684 33.2869 30.5501 33.1286 30.7953C32.9681 31.0437 32.7195 31.3018 32.3465 31.421C31.9678 31.5421 31.5897 31.4791 31.2573 31.3344C30.9332 31.1934 30.6112 30.9588 30.2864 30.6586C29.249 29.6999 28.8943 28.6096 28.7256 28.0911C28.6856 27.9682 28.6561 27.8774 28.6304 27.8281C28.6125 27.7937 28.6004 27.7775 28.5948 27.7711C28.5827 27.7657 28.5416 27.7513 28.4487 27.7451C28.1448 27.7246 27.573 27.8042 26.4745 28.1069C24.3697 28.687 22.5719 28.5441 21.3293 28.3752L21.3292 28.3759C22.7742 29.6443 24.5058 30.9746 26.5948 32.3272C27.1731 32.7017 27.6871 33.0521 28.1586 33.3735C30.9201 35.2561 32.2224 36.1439 36.4393 35.044C33.1091 40.0233 29.4904 41.6019 24.8249 38.5809C21.6903 36.5512 20.2718 32.7325 19.0205 29.3032H18.6928V31.2045H16.4921V34.4754H14.2914V39.4276H12.0907V42.6985H9.9307V46H7.72997H5.09724V42.6985H7.72997V39.4276H9.88995V34.4754H12.0907V31.2045H14.2914V28.7277L2.20168 28.8478L0.533696 28.8644L0.5 25.582L2.16798 25.5654L14.4044 25.4438C14.9915 25.3114 14.4373 25.0424 14.0251 24.9072C7.92037 22.9049 4.80842 20.9034 3.49138 18.4294C2.50247 16.5719 1.57617 7.47591 8.15972 8.88927C14.3581 10.2199 11.3257 16.5619 10.5501 18.184C10.5019 18.2848 10.4624 18.3674 10.4344 18.4294C9.95562 19.4895 9.95562 20.4317 12.2299 22.1984C13.9285 23.5179 14.9246 23.0923 15.2767 22.6466L12.8661 3H22.7391L20.2032 23.1554C20.4911 23.0168 20.8382 23.0101 21.1415 23.1618C20.6789 22.8617 20.5304 22.2544 20.8131 21.7778C21.1057 21.2846 21.7493 21.1181 22.2505 21.406C22.7518 21.6939 22.921 22.3271 22.6284 22.8203C22.3462 23.2959 21.7377 23.4677 21.2451 23.2211C21.6809 23.5039 21.8379 24.0592 21.6183 24.5211C21.6208 24.5228 21.6233 24.5246 21.6258 24.5263ZM28.6366 10.7036C29.1337 10.9702 29.7594 10.801 30.0467 10.3166C30.2956 9.89705 30.2104 9.37616 29.8707 9.05275C30.3095 9.15599 30.7833 8.97115 31.0224 8.56794C31.315 8.07472 31.1458 7.44152 30.6446 7.15364C30.1433 6.86577 29.4998 7.03223 29.2072 7.52545C28.9583 7.94504 29.0436 8.46594 29.3832 8.78935C28.9444 8.68611 28.4707 8.87095 28.2315 9.27415C27.9443 9.75826 28.102 10.3772 28.5819 10.6721C28.0848 10.4055 27.4591 10.5747 27.1718 11.059C26.8884 11.5368 27.0382 12.1459 27.5035 12.4453C27.0101 12.1955 26.3988 12.3669 26.1159 12.8439C25.8233 13.3372 25.9925 13.9704 26.4937 14.2582C26.995 14.5461 27.6385 14.3797 27.9311 13.8864C28.2145 13.4087 28.0646 12.7996 27.5994 12.5002C28.0927 12.75 28.704 12.5786 28.987 12.1015C29.2742 11.6174 29.1165 10.9985 28.6366 10.7036ZM31.8619 11.3601C31.5746 11.8444 30.9488 12.0137 30.4517 11.747C30.9316 12.0419 31.0893 12.6609 30.8021 13.145C30.5192 13.622 29.9079 13.7934 29.4145 13.5437C29.8798 13.843 30.0296 14.4521 29.7462 14.9299C29.4537 15.4231 28.8101 15.5896 28.3089 15.3017C27.8076 15.0138 27.6384 14.3806 27.931 13.8874C28.214 13.4104 28.8253 13.239 29.3186 13.4887C28.8534 13.1894 28.7035 12.5803 28.9869 12.1025C29.2742 11.6182 29.9 11.4489 30.3971 11.7156C29.9172 11.4207 29.7595 10.8017 30.0467 10.3176C30.2858 9.9144 30.7596 9.72957 31.1984 9.83281C30.8587 9.5094 30.7735 8.9885 31.0224 8.56891C31.3149 8.07569 31.9585 7.90923 32.4597 8.1971C32.961 8.48498 33.1302 9.11818 32.8376 9.6114C32.5984 10.0146 32.1247 10.1994 31.6859 10.0962C32.0255 10.4196 32.1108 10.9405 31.8619 11.3601ZM25.447 16.0534C25.946 16.3296 26.5797 16.1616 26.8694 15.6732C27.162 15.18 26.9928 14.5468 26.4915 14.2589C25.9903 13.971 25.3467 14.1375 25.0542 14.6307C24.7642 15.1196 24.9278 15.7459 25.4188 16.0373C24.9197 15.7612 24.286 15.9292 23.9963 16.4175C23.7038 16.9108 23.8729 17.544 24.3742 17.8318C24.8755 18.1197 25.519 17.9532 25.8116 17.46C26.1016 16.9712 25.9379 16.3448 25.447 16.0534ZM28.6846 16.7167C28.3949 17.2051 27.761 17.3731 27.262 17.0968C27.7531 17.3881 27.9167 18.0146 27.6267 18.5035C27.3342 18.9967 26.6906 19.1632 26.1894 18.8753C25.6881 18.5874 25.5189 17.9542 25.8115 17.461C26.1012 16.9726 26.735 16.8046 27.2341 17.0808C26.743 16.7895 26.5793 16.1631 26.8693 15.6742C27.1619 15.181 27.8054 15.0145 28.3067 15.3024C28.808 15.5903 28.9771 16.2235 28.6846 16.7167ZM23.3154 19.6186C23.8166 19.9065 24.4602 19.74 24.7527 19.2468C25.0453 18.7536 24.8761 18.1204 24.3749 17.8325C23.8736 17.5446 23.2301 17.7111 22.9375 18.2043C22.6449 18.6975 22.8141 19.3307 23.3154 19.6186ZM26.5679 20.2903C26.2753 20.7835 25.6318 20.95 25.1305 20.6621C24.6292 20.3742 24.4601 19.741 24.7526 19.2478C25.0452 18.7546 25.6887 18.5881 26.19 18.876C26.6913 19.1638 26.8605 19.797 26.5679 20.2903ZM22.2527 21.4054C22.754 21.6933 23.3975 21.5268 23.6901 21.0336C23.9827 20.5404 23.8135 19.9072 23.3122 19.6193C22.8109 19.3314 22.1674 19.4979 21.8748 19.9911C21.5823 20.4843 21.7514 21.1175 22.2527 21.4054ZM25.5052 22.0771C25.2127 22.5703 24.5691 22.7368 24.0679 22.4489C23.5666 22.161 23.3974 21.5278 23.69 21.0346C23.9826 20.5413 24.6261 20.3749 25.1274 20.6628C25.6286 20.9506 25.7978 21.5838 25.5052 22.0771ZM28.5935 27.7696C28.592 27.7685 28.5913 27.7676 28.5913 27.7676C28.5913 27.7676 28.592 27.768 28.5935 27.7696Z" fill="black"/>
<defs>
<clipPath id="clip0_81_33620">
<rect width="164.354" height="31.3799" fill="white" transform="translate(50.1465 8.36426)"/>
</clipPath>
</defs>
</svg>
