<svg width="72" height="48" viewBox="0 0 72 48" fill="none" xmlns="http://www.w3.org/2000/svg">
<path fill-rule="evenodd" clip-rule="evenodd" d="M3 8.12602V7.87398C1.27477 7.42994 0 5.86384 0 4C0 1.79086 1.79086 0 4 0C6.20914 0 8 1.79086 8 4C8 1.79086 9.79086 0 12 0C14.2091 0 16 1.79086 16 4C16 1.79086 17.7909 0 20 0C22.2091 0 24 1.79086 24 4C24 1.79086 25.7909 0 28 0C30.2091 0 32 1.79086 32 4C32 1.79086 33.7909 0 36 0C38.2091 0 40 1.79086 40 4C40 1.79086 41.7909 0 44 0C46.2091 0 48 1.79086 48 4C48 1.79086 49.7909 0 52 0C54.2091 0 56 1.79086 56 4C56 1.79086 57.7909 0 60 0C62.2091 0 64 1.79086 64 4C64 1.79086 65.7909 0 68 0C70.2091 0 72 1.79086 72 4C72 6.20914 70.2091 8 68 8C70.2091 8 72 9.79086 72 12C72 14.2091 70.2091 16 68 16C70.2091 16 72 17.7909 72 20C72 22.2091 70.2091 24 68 24C70.2091 24 72 25.7909 72 28C72 30.2091 70.2091 32 68 32C70.2091 32 72 33.7909 72 36C72 38.2091 70.2091 40 68 40C70.2091 40 72 41.7909 72 44C72 46.2091 70.2091 48 68 48C65.7909 48 64 46.2091 64 44C64 43.6547 64.0437 43.3196 64.126 43H63.874C63.9562 43.3196 64 43.6547 64 44C64 46.2091 62.2091 48 60 48C57.7909 48 56 46.2091 56 44C56 43.6547 56.0438 43.3196 56.126 43H55.874C55.9562 43.3196 56 43.6547 56 44C56 46.2091 54.2091 48 52 48C49.7909 48 48 46.2091 48 44C48 43.6547 48.0438 43.3196 48.126 43H47.874C47.9562 43.3196 48 43.6547 48 44C48 46.2091 46.2091 48 44 48C41.7909 48 40 46.2091 40 44C40 43.6547 40.0438 43.3196 40.126 43H39.874C39.9562 43.3196 40 43.6547 40 44C40 46.2091 38.2091 48 36 48C33.7909 48 32 46.2091 32 44C32 43.6547 32.0438 43.3196 32.126 43H31.874C31.9562 43.3196 32 43.6547 32 44C32 46.2091 30.2091 48 28 48C25.7909 48 24 46.2091 24 44C24 43.6547 24.0438 43.3196 24.126 43H23.874C23.9562 43.3196 24 43.6547 24 44C24 46.2091 22.2091 48 20 48C17.7909 48 16 46.2091 16 44C16 43.6547 16.0438 43.3196 16.126 43H15.874C15.9562 43.3196 16 43.6547 16 44C16 46.2091 14.2091 48 12 48C9.79086 48 8 46.2091 8 44C8 43.6547 8.04375 43.3196 8.12602 43H7.87398C7.95625 43.3196 8 43.6547 8 44C8 46.2091 6.20914 48 4 48C1.79086 48 0 46.2091 0 44C0 42.1362 1.27477 40.5701 3 40.126V39.874C1.27477 39.4299 0 37.8638 0 36C0 34.1362 1.27477 32.5701 3 32.126V31.874C1.27477 31.4299 0 29.8638 0 28C0 26.1362 1.27477 24.5701 3 24.126V23.874C1.27477 23.4299 0 21.8638 0 20C0 18.1362 1.27477 16.5701 3 16.126V15.874C1.27477 15.4299 0 13.8638 0 12C0 10.1362 1.27477 8.57006 3 8.12602Z" fill="white"/>
</svg>
